<svg width="375" height="148" viewBox="0 0 375 148" fill="none" xmlns="http://www.w3.org/2000/svg">
<g opacity="0.2" clip-path="url(#clip0)">
<path d="M100.916 118.691C100.916 124.897 99.6861 131.486 96.1359 136.818C91.132 144.336 82.6059 148.137 70.837 148.137H-5.00366C-10.8462 148.137 -15.2909 146.25 -18.2262 142.504C-22.7827 136.735 -22.5312 127.522 -20.7421 120.85C-17.8907 110.106 -10.2871 102.122 -0.419106 99.47C7.29635 97.4194 15.2913 98.9778 21.665 103.653C29.1848 89.6273 38.4098 76.5583 56.0211 75.0273C62.8141 74.4258 85.8486 74.5351 97.5057 100.427C99.0991 103.954 100.916 111.035 100.916 118.691Z" fill="#BDBDBD"/>
</g>
<g opacity="0.2" clip-path="url(#clip1)">
<path d="M407.904 81.2742C407.904 88.4158 406.494 95.9978 402.424 102.133C396.688 110.784 386.914 115.157 373.423 115.157H286.484C279.786 115.157 274.691 112.987 271.326 108.676C266.103 102.038 266.391 91.436 268.442 83.7596C271.711 71.3956 280.427 62.2091 291.739 59.1574C300.584 56.7978 309.749 58.5911 317.055 63.9709C325.675 47.8315 336.25 32.7933 356.439 31.0315C364.226 30.3394 390.631 30.4653 403.994 60.2585C405.821 64.3169 407.904 72.4652 407.904 81.2742Z" fill="#75988D"/>
</g>
<g opacity="0.4" clip-path="url(#clip2)">
<path d="M274.953 25.137C274.953 28.7078 274.263 32.4988 272.271 35.5662C269.464 39.892 264.681 42.0786 258.079 42.0786H215.535C212.257 42.0786 209.764 40.9932 208.117 38.8381C205.561 35.519 205.702 30.2179 206.706 26.3797C208.305 20.1977 212.571 15.6044 218.106 14.0786C222.435 12.8988 226.92 13.7954 230.495 16.4853C234.713 8.41565 239.888 0.896549 249.768 0.0156503C253.579 -0.330417 266.5 -0.267496 273.04 14.6291C273.934 16.6583 274.953 20.7325 274.953 25.137Z" fill="#75988D"/>
</g>
<defs>
<clipPath id="clip0">
<rect width="123" height="73" fill="white" transform="translate(-22 75)"/>
</clipPath>
<clipPath id="clip1">
<rect width="141" height="84" fill="white" transform="translate(267 31)"/>
</clipPath>
<clipPath id="clip2">
<rect width="69" height="42" fill="white" transform="translate(206)"/>
</clipPath>
</defs>
</svg>
