<svg width="215" height="142" viewBox="0 0 215 142" fill="none" xmlns="http://www.w3.org/2000/svg">
<g clip-path="url(#clip0)">
<path d="M108.719 64.621C107.888 53.0281 98.2461 43.8757 86.4987 43.8757C74.1971 43.8757 64.2229 53.8601 64.2229 66.1742C64.2229 78.4882 74.1971 88.4726 86.4987 88.4726C94.0348 88.4726 100.684 84.7007 104.729 78.9874V87.9179H108.774V66.2296C108.774 65.6749 108.774 65.1757 108.719 64.621ZM86.4987 84.4234C76.469 84.4234 68.268 76.214 68.268 66.1742C68.268 56.1343 76.469 47.9249 86.4987 47.9249C96.5283 47.9249 104.729 56.1343 104.729 66.1742C104.729 76.2695 96.5837 84.4234 86.4987 84.4234Z" fill="#38635A"/>
<path d="M211.066 44.0977V68.1157C211.066 76.4914 204.583 83.4251 196.382 84.0907C186.851 84.8672 179.037 77.1571 179.037 67.561V44.0422H174.992V68.6704C175.325 79.4868 184.191 88.1399 195.052 88.1399C201.59 88.1399 207.409 84.9782 211.066 80.1524V88.75C211.066 99.7329 202.2 108.608 191.228 108.608H185.798V112.657H191.228C204.416 112.657 215.111 101.952 215.111 88.75V44.0422H211.066V44.0977Z" fill="#38635A"/>
<path d="M142.687 43.8758C135.151 43.8758 128.501 47.6477 124.456 53.361V21.3H120.411V66.1743C120.411 78.4883 130.385 88.4727 142.687 88.4727C154.988 88.4727 164.963 78.4883 164.963 66.1743C164.963 53.9157 154.988 43.8758 142.687 43.8758ZM142.687 84.4235C132.657 84.4235 124.456 76.2141 124.456 66.1743C124.456 56.1344 132.657 47.925 142.687 47.925C152.716 47.925 160.918 56.1344 160.918 66.1743C160.918 76.2696 152.716 84.4235 142.687 84.4235Z" fill="#38635A"/>
<path d="M11.0825 142.056C6.64947 142.056 3.1585 140.336 1.27448 138.617L1.60694 136.786C3.82344 138.672 7.14819 140.336 11.0825 140.336C15.5155 140.336 19.1727 137.507 19.1727 133.014C19.1727 129.076 17.2887 126.524 10.5283 124.527C5.15334 122.974 2.16107 119.757 2.16107 115.264C2.16107 110.771 5.8737 107.221 11.6366 107.221C14.518 107.221 17.5103 108.442 19.2835 109.717L18.8956 111.381C16.6791 109.939 13.9085 108.941 11.6366 108.941C6.92654 108.941 4.15592 111.603 4.15592 115.264C4.15592 118.37 5.65205 121.088 11.4149 122.697C17.5657 124.417 21.1121 127.467 21.1121 132.792C21.0567 138.949 15.9033 142.056 11.0825 142.056Z" fill="#75988D"/>
<path d="M27.3737 141.279V107.887H45.1056V109.606H29.2577V122.863H42.335V124.583H29.2577V139.559H45.1056V141.279H27.3737Z" fill="#75988D"/>
<path d="M74.5851 141.279L53.75 111.714V141.335H51.9214V107.942H53.3067L74.0863 137.563V107.942H75.9149V141.335H74.5851V141.279Z" fill="#75988D"/>
<path d="M92.0954 142.056C87.6624 142.056 84.1714 140.336 82.2874 138.617L82.6198 136.786C84.8363 138.672 88.1611 140.336 92.0954 140.336C96.5283 140.336 100.186 137.507 100.186 133.014C100.186 129.076 98.3015 126.524 91.5412 124.527C86.1662 122.974 83.174 119.757 83.174 115.264C83.174 110.771 86.8866 107.221 92.6495 107.221C95.5309 107.221 98.5232 108.442 100.296 109.717L99.9085 111.381C97.692 109.939 94.9214 108.941 92.6495 108.941C87.9394 108.941 85.1688 111.603 85.1688 115.264C85.1688 118.37 86.6649 121.088 92.4278 122.697C98.5786 124.417 102.125 127.467 102.125 132.792C102.07 138.949 96.9162 142.056 92.0954 142.056Z" fill="#75988D"/>
<path d="M123.514 142.111C113.983 142.111 106.78 135.066 106.78 124.638C106.78 114.266 113.983 107.166 123.514 107.166C132.99 107.166 140.249 114.266 140.249 124.638C140.249 135.011 132.934 142.111 123.514 142.111ZM123.514 108.885C115.091 108.885 108.664 114.931 108.664 124.583C108.664 134.234 115.091 140.28 123.514 140.28C131.826 140.28 138.365 134.234 138.365 124.583C138.309 114.987 131.771 108.885 123.514 108.885Z" fill="#75988D"/>
<path d="M168.121 141.279H165.905L155.986 127.024H148.505V141.335H146.621V107.942H156.374C163.134 107.942 166.126 112.491 166.126 117.538C166.126 122.142 163.633 126.303 158.036 126.968L168.121 141.279ZM148.505 125.249H156.318C162.192 125.249 164.187 121.366 164.187 117.483C164.187 113.656 162.247 109.662 156.318 109.662H148.505V125.249Z" fill="#75988D"/>
<path d="M21.7217 88.4173C17.1779 88.4173 12.3016 87.5298 8.42269 84.9782C2.88146 81.3727 0.11084 75.2712 0.11084 66.7844V12.2032C0.11084 7.98756 1.49615 4.82584 4.26677 2.66256C8.53352 -0.610095 15.2938 -0.44369 20.1701 0.832092C28.0941 2.88444 33.9678 8.37584 35.8518 15.4758C37.348 21.0227 36.2397 26.7915 32.8041 31.3399C43.1108 36.7758 52.6972 43.3766 53.8608 56.079C54.3041 60.9602 54.2487 77.5454 35.1869 85.9212C32.5271 87.086 27.3183 88.4173 21.7217 88.4173ZM13.4098 4.04928C10.8608 4.04928 8.36728 4.5485 6.6495 5.87975C4.93172 7.211 4.10053 9.26334 4.10053 12.2032V66.7844C4.10053 73.829 6.26162 78.7657 10.5838 81.5946C18.0645 86.4759 29.9781 83.7579 33.4691 82.2602C49.5941 75.1602 50.2036 61.8477 49.7603 56.4672C48.7075 44.9297 39.1766 39.161 28.6482 33.7805L26.1547 32.5048L28.0941 30.5079C31.9175 26.6805 33.3029 21.5774 31.9175 16.4743C30.366 10.8165 25.6005 6.37897 19.1173 4.7149C17.4549 4.32662 15.4047 4.04928 13.4098 4.04928Z" fill="#38635A"/>
<path d="M175.38 107.11C178.206 107.11 180.478 109.44 180.478 112.269C180.478 115.098 178.206 117.372 175.38 117.372C172.554 117.372 170.338 115.098 170.338 112.269C170.338 109.44 172.554 107.11 175.38 107.11ZM175.38 116.485C177.707 116.485 179.536 114.599 179.536 112.269C179.536 109.939 177.707 108.053 175.38 108.053C173.053 108.053 171.224 109.939 171.224 112.269C171.224 114.599 173.053 116.485 175.38 116.485Z" fill="#75988D"/>
<path d="M176.821 115.098L175.325 112.935H174.66V115.098H173.552V109.606H175.713C176.932 109.606 177.486 110.383 177.486 111.271C177.486 111.992 177.153 112.546 176.378 112.824L177.985 115.098H176.821ZM175.491 110.438H174.604V112.158H175.491C176.101 112.158 176.378 111.825 176.378 111.326C176.433 110.771 176.156 110.438 175.491 110.438Z" fill="#75988D"/>
</g>
<defs>
<clipPath id="clip0">
<rect width="215" height="142" fill="white"/>
</clipPath>
</defs>
</svg>
