<svg width="20" height="20" viewBox="0 0 20 20" fill="none" xmlns="http://www.w3.org/2000/svg">
<path d="M18.6388 4.55563C16.0738 2.86017 13.0652 1.95992 9.99045 1.96783C6.91571 1.97573 3.91178 2.89144 1.35549 4.60008C1.29494 4.64093 1.24302 4.69332 1.20271 4.75423C1.1624 4.81515 1.13449 4.88341 1.12056 4.95512C1.09243 5.09994 1.12298 5.25001 1.20549 5.3723C1.288 5.49459 1.41572 5.5791 1.56054 5.60723C1.70536 5.63536 1.85542 5.60481 1.97771 5.5223C4.35223 3.937 7.14177 3.08769 9.99685 3.08077C12.8519 3.07385 15.6455 3.90964 18.0277 5.48341C18.1507 5.56155 18.2996 5.58822 18.4421 5.55766C18.5846 5.5271 18.7094 5.44177 18.7895 5.32005C18.8697 5.19834 18.8988 5.04999 18.8706 4.907C18.8424 4.764 18.7592 4.63781 18.6388 4.55563Z" fill="#75988D"/>
<path d="M10.0277 5.95558C7.68176 5.95266 5.39079 6.66593 3.46107 8.00002C3.37367 8.09335 3.32114 8.21398 3.31235 8.34154C3.30356 8.4691 3.33904 8.59579 3.4128 8.70024C3.48656 8.80468 3.5941 8.88048 3.71725 8.91486C3.84041 8.94923 3.97166 8.94006 4.08885 8.88891C5.83015 7.69819 7.89047 7.06112 9.99996 7.06112C12.1094 7.06112 14.1698 7.69819 15.9111 8.88891C16.0326 8.95852 16.1759 8.97968 16.3123 8.94816C16.4488 8.91663 16.5683 8.83474 16.6469 8.71888C16.7256 8.60301 16.7576 8.46172 16.7365 8.32328C16.7154 8.18484 16.6428 8.05947 16.5333 7.97224C14.6174 6.66013 12.3499 5.95722 10.0277 5.95558Z" fill="#75988D"/>
<path d="M10.0276 9.9446C8.42769 9.94729 6.87048 10.4612 5.58319 11.4113C5.4746 11.5018 5.40459 11.6303 5.38742 11.7706C5.37025 11.9109 5.4072 12.0525 5.49077 12.1665C5.57433 12.2805 5.69821 12.3583 5.83718 12.3842C5.97614 12.4101 6.11975 12.382 6.23874 12.3057C7.33284 11.4982 8.65502 11.0588 10.0148 11.0508C11.3746 11.0428 12.7019 11.4666 13.8054 12.2613C13.8629 12.3167 13.9316 12.359 14.0069 12.3854C14.0822 12.4119 14.1624 12.4218 14.2419 12.4144C14.3213 12.4071 14.3983 12.3828 14.4675 12.343C14.5367 12.3033 14.5966 12.2491 14.643 12.1841C14.6894 12.1192 14.7212 12.045 14.7364 11.9666C14.7515 11.8883 14.7496 11.8076 14.7307 11.73C14.7119 11.6524 14.6765 11.5799 14.6271 11.5172C14.5777 11.4545 14.5153 11.4032 14.4443 11.3668C13.1591 10.4385 11.6131 9.94067 10.0276 9.9446Z" fill="#75988D"/>
<path d="M10.0001 13.5667C9.56054 13.5667 9.1309 13.697 8.76546 13.9412C8.40001 14.1853 8.11518 14.5324 7.94699 14.9385C7.77879 15.3445 7.73479 15.7913 7.82053 16.2224C7.90628 16.6535 8.11792 17.0494 8.42871 17.3602C8.73949 17.671 9.13545 17.8827 9.56652 17.9684C9.99759 18.0541 10.4444 18.0101 10.8505 17.8419C11.2565 17.6737 11.6036 17.3889 11.8478 17.0235C12.0919 16.658 12.2223 16.2284 12.2223 15.7889C12.2223 15.1995 11.9882 14.6343 11.5714 14.2175C11.1547 13.8008 10.5894 13.5667 10.0001 13.5667ZM10.0001 16.9C9.7803 16.9 9.56548 16.8348 9.38275 16.7127C9.20003 16.5906 9.05762 16.4171 8.97352 16.2141C8.88943 16.011 8.86742 15.7876 8.91029 15.5721C8.95317 15.3566 9.05899 15.1586 9.21438 15.0032C9.36977 14.8478 9.56775 14.742 9.78329 14.6991C9.99882 14.6562 10.2222 14.6782 10.4253 14.7623C10.6283 14.8464 10.8018 14.9889 10.9239 15.1716C11.046 15.3543 11.1112 15.5691 11.1112 15.7889C11.1112 16.0836 10.9941 16.3662 10.7857 16.5745C10.5774 16.7829 10.2947 16.9 10.0001 16.9Z" fill="#75988D"/>
</svg>
